# xmcd
#
# Track frame offsets:
#	150
#	12815
#	23855
#	34532
#	44485
#	57645
#	69342
#	80820
#	92805
#	106765
#	116572
#	129410
#	141370
#	153167
#	162815
#	179285
#	190460
#	201797
#	217442
#	230110
#
# Disc length: 3198 seconds
#
# Revision: 1
# Processed by: cddbd v1.5.2PL0 Copyright (c) Steve Scherf et al.
# Submitted via: audiograbber 1.83.01
#
DISCID=200c7c14
DTITLE=Hank Williams Jr. - The World Of Hank Williams Jr.
DYEAR=1996
DGENRE=Country
TTITLE0=Ring of Fire
TTITLE1=Bye Bye Love (with Connie Francis)
TTITLE2=Make The World Go Away
TTITLE3=I Walk The Line
TTITLE4=So Sad (with Lois Johnson)
TTITLE5=Sweet Dreams
TTITLE6=North To Alaska
TTITLE7=There Goes My Everything
TTITLE8=Give My Love To Rose
TTITLE9=Singing The Blues (with Connie Francis)
TTITLE10=Folsom Prison Blues
TTITLE11=I Love You A Thousand Ways
TTITLE12=Please Help Me I'm Falling (with Connie Francis)
TTITLE13=Understand Your Man
TTITLE14=The Long Black Veil
TTITLE15=Guess Things Happen That Way
TTITLE16=Together Again (with Lois Johnson)
TTITLE17=The Blizzard
TTITLE18=Window Up Above
TTITLE19=Your Cheatin' Heart
EXTD=YEAR: 1996
EXTT0=
EXTT1=
EXTT2=
EXTT3=
EXTT4=
EXTT5=
EXTT6=
EXTT7=
EXTT8=
EXTT9=
EXTT10=
EXTT11=
EXTT12=
EXTT13=
EXTT14=
EXTT15=
EXTT16=
EXTT17=
EXTT18=
EXTT19=
PLAYORDER=
